<svg width="100" height="17" viewBox="0 0 100 17" fill="none" xmlns="http://www.w3.org/2000/svg">
  <path d="M8 0.317139L9.79611 5.845H15.6085L10.9062 9.26141L12.7023 14.7893L8 11.3729L3.29772 14.7893L5.09383 9.26141L0.391548 5.845H6.20389L8 0.317139Z" fill="#2C6FCC"/>
  <path d="M29 0.317139L30.7961 5.845H36.6085L31.9062 9.26141L33.7023 14.7893L29 11.3729L24.2977 14.7893L26.0938 9.26141L21.3915 5.845H27.2039L29 0.317139Z" fill="#2C6FCC"/>
  <path d="M50 0.317139L51.7961 5.845H57.6085L52.9062 9.26141L54.7023 14.7893L50 11.3729L45.2977 14.7893L47.0938 9.26141L42.3915 5.845H48.2039L50 0.317139Z" fill="#2C6FCC"/>
  <path d="M71 0.317139L72.7961 5.845H78.6085L73.9062 9.26141L75.7023 14.7893L71 11.3729L66.2977 14.7893L68.0938 9.26141L63.3915 5.845H69.2039L71 0.317139Z" fill="#2C6FCC"/>
  <path d="M92 1.12616L93.5583 5.92226L93.6145 6.095H93.7961H98.839L94.7592 9.05916L94.6123 9.16592L94.6684 9.33867L96.2268 14.1348L92.1469 11.1706L92 11.0638L91.8531 11.1706L87.7732 14.1348L89.3316 9.33867L89.3877 9.16592L89.2408 9.05916L85.161 6.095H90.2039H90.3855L90.4417 5.92226L92 1.12616Z" fill="url(#paint0_linear_12_390)" stroke="#2C6FCC" stroke-width="0.5"/>
  <defs>
    <linearGradient id="paint0_linear_12_390" x1="100" y1="8.31714" x2="84" y2="8.31714" gradientUnits="userSpaceOnUse">
      <stop offset="0.5" stop-color="white"/>
      <stop offset="0.505" stop-color="#2C6FCC"/>
    </linearGradient>
  </defs>
</svg>