<svg width="15" height="12" viewBox="0 0 15 12" fill="none" xmlns="http://www.w3.org/2000/svg">
  <path d="M0.00281252 2.14125L7.5 5.88938L14.9972 2.14125C14.9694 1.66354 14.7601 1.21452 14.412 0.88615C14.064 0.55778 13.6035 0.374912 13.125 0.375H1.875C1.39649 0.374912 0.936044 0.55778 0.587979 0.88615C0.239914 1.21452 0.0305664 1.66354 0.00281252 2.14125Z" fill="white"/>
  <path d="M15 4.23563L7.5 7.98563L0 4.23563V9.75C0 10.2473 0.197544 10.7242 0.549175 11.0758C0.900805 11.4275 1.37772 11.625 1.875 11.625H13.125C13.6223 11.625 14.0992 11.4275 14.4508 11.0758C14.8025 10.7242 15 10.2473 15 9.75V4.23563Z" fill="white"/>
</svg>