<svg width="229" height="163" viewBox="0 0 229 163" fill="none" xmlns="http://www.w3.org/2000/svg">
  <path d="M210.566 109.852C207.373 114.08 203.518 118.162 199.027 122.057C183.823 135.246 162.403 145.365 137.085 151.317L113.967 156.753L91.2791 151.383C66.0342 145.409 44.6844 135.288 29.5351 122.118C25.0341 118.205 21.1739 114.1 17.9813 109.852H10.0695C13.938 115.671 18.9134 121.248 24.9425 126.49C40.9074 140.371 63.2677 151.003 89.6046 157.237L113.962 163L138.748 157.172C165.16 150.962 187.591 140.334 203.615 126.436C209.64 121.209 214.614 115.65 218.489 109.852H210.566ZM225.163 25.7516C173.288 25.7516 114.323 0 114.323 0C114.323 0 56.145 25.5756 3.45119 25.6687L0.133698 25.6755V58.052L6.78201 57.788V31.686C29.9379 31.2831 54.6718 27.1193 80.3595 19.2943C97.3598 14.1165 109.568 8.86598 113.986 6.87037L114.159 6.81621C123.895 11.2103 170.406 30.9497 221.865 31.7723V48.0706L228.513 48.9406V25.7516H225.163Z" fill="#F1270F"/>
</svg>