<svg width="21" height="20" viewBox="0 0 21 20" fill="none" xmlns="http://www.w3.org/2000/svg">
  <path d="M12.0416 10.2326C12.0358 10.536 11.9401 10.8308 11.7666 11.0796C11.5931 11.3285 11.3496 11.5203 11.067 11.6306C10.7843 11.741 10.4753 11.7649 10.1791 11.6994C9.88283 11.6339 9.6127 11.4819 9.40293 11.2628C9.19315 11.0436 9.05317 10.767 9.00074 10.4682C8.94831 10.1694 8.98578 9.86169 9.10841 9.58418C9.23103 9.30667 9.43329 9.07181 9.68955 8.90938C9.9458 8.74695 10.2445 8.66426 10.5478 8.67179C10.9509 8.68672 11.3322 8.85803 11.6111 9.14941C11.89 9.44078 12.0444 9.82931 12.0416 10.2326Z" fill="#F1270F"/>
  <path d="M13.1457 5.43521H7.95094C7.43692 5.43521 6.94395 5.63941 6.58049 6.00287C6.21702 6.36634 6.01283 6.85931 6.01283 7.37332V12.6849C6.01283 12.9394 6.06296 13.1915 6.16036 13.4266C6.25776 13.6618 6.40052 13.8754 6.58049 14.0554C6.76046 14.2353 6.97411 14.3781 7.20926 14.4755C7.4444 14.5729 7.69642 14.623 7.95094 14.623H13.1457C13.4002 14.623 13.6523 14.5729 13.8874 14.4755C14.1225 14.3781 14.3362 14.2353 14.5162 14.0554C14.6961 13.8754 14.8389 13.6618 14.9363 13.4266C15.0337 13.1915 15.0838 12.9394 15.0838 12.6849V7.3829C15.0848 7.12765 15.0355 6.87471 14.9385 6.63857C14.8416 6.40244 14.699 6.18775 14.519 6.00682C14.339 5.82588 14.125 5.68226 13.8893 5.58417C13.6537 5.48608 13.401 5.43546 13.1457 5.43521ZM10.5479 12.8305C10.0336 12.8421 9.52756 12.7002 9.09431 12.423C8.66105 12.1457 8.32023 11.7456 8.11534 11.2738C7.91045 10.802 7.85079 10.2799 7.94396 9.77399C8.03714 9.26813 8.27893 8.80149 8.63847 8.43365C8.99802 8.0658 9.45901 7.81343 9.96262 7.70873C10.4662 7.60403 10.9896 7.65177 11.466 7.84583C11.9423 8.0399 12.3501 8.3715 12.6371 8.79832C12.9242 9.22514 13.0776 9.72781 13.0777 10.2422C13.0817 10.5783 13.0193 10.9118 12.8943 11.2238C12.7693 11.5358 12.584 11.8201 12.349 12.0605C12.1141 12.3008 11.8341 12.4926 11.5251 12.6247C11.216 12.7568 10.8839 12.8267 10.5479 12.8305ZM13.3593 7.65485C13.2961 7.65486 13.2335 7.64227 13.1753 7.6178C13.117 7.59334 13.0642 7.55749 13.02 7.51237C12.9758 7.46725 12.941 7.41375 12.9177 7.35502C12.8944 7.29629 12.883 7.23349 12.8843 7.17032C12.8843 7.04182 12.9354 6.91857 13.0262 6.82771C13.1171 6.73684 13.2403 6.68579 13.3688 6.68579C13.4973 6.68579 13.6206 6.73684 13.7114 6.82771C13.8023 6.91857 13.8534 7.04182 13.8534 7.17032C13.8553 7.23873 13.8424 7.30673 13.8155 7.36969C13.7887 7.43264 13.7486 7.48906 13.698 7.53507C13.6473 7.58109 13.5873 7.61561 13.5221 7.63629C13.4568 7.65696 13.3879 7.66329 13.32 7.65485H13.3593Z" fill="#F1270F"/>
  <path d="M10.5478 0.424314C8.00821 0.411616 5.56757 1.4083 3.76281 3.1951C1.95805 4.9819 0.937012 7.41246 0.924314 9.95207C0.911616 12.4917 1.9083 14.9323 3.6951 16.7371C5.4819 18.5419 7.91246 19.5629 10.4521 19.5756C11.7096 19.5819 12.956 19.3404 14.1202 18.865C15.2843 18.3896 16.3435 17.6895 17.2371 16.8048C18.1307 15.9201 18.8413 14.868 19.3284 13.7086C19.8154 12.5493 20.0693 11.3053 20.0756 10.0478C20.0819 8.79034 19.8404 7.54392 19.365 6.37975C18.8896 5.21557 18.1895 4.15643 17.3048 3.26281C16.4201 2.36918 15.368 1.65857 14.2086 1.17154C13.0493 0.684509 11.8053 0.430602 10.5478 0.424314ZM16.3631 12.5873C16.3658 13.0169 16.2832 13.4427 16.12 13.8402C15.9569 14.2376 15.7165 14.5987 15.4127 14.9025C15.109 15.2063 14.748 15.4468 14.3506 15.6101C13.9532 15.7733 13.5274 15.8561 13.0978 15.8535H7.99975C7.57023 15.856 7.14449 15.7731 6.74719 15.6099C6.34988 15.4467 5.9889 15.2063 5.68513 14.9026C5.38136 14.5989 5.14084 14.238 4.97749 13.8407C4.81415 13.4435 4.73122 13.0178 4.7335 12.5882V7.48922C4.73083 7.05963 4.81346 6.63377 4.9766 6.23635C5.13974 5.83893 5.38015 5.47784 5.68388 5.17402C5.98761 4.8702 6.34862 4.62969 6.746 4.46644C7.14337 4.30318 7.5692 4.22043 7.9988 4.22297H13.0978C13.5273 4.22043 13.9531 4.30315 14.3504 4.46635C14.7477 4.62954 15.1087 4.86997 15.4124 5.17369C15.7161 5.4774 15.9565 5.83838 16.1197 6.23569C16.2829 6.633 16.3657 7.05875 16.3631 7.48826V12.5873Z" fill="#F1270F"/>
</svg>