<svg width="19" height="17" viewBox="0 0 19 17" fill="none" xmlns="http://www.w3.org/2000/svg">
  <path d="M17.7091 8.78263C17.7091 3.78682 13.7589 0.392578 9.36364 0.392578C5.01472 0.392578 1.01817 3.71402 1.01817 8.83722C0.461806 9.14662 0.0908966 9.72901 0.0908966 10.4024V12.2224C0.0908966 13.2233 0.925443 14.0423 1.94544 14.0423H2.87272V8.49143C2.87272 4.96979 5.77509 2.12155 9.36364 2.12155C12.9522 2.12155 15.8546 4.96979 15.8546 8.49143V14.9523H8.43636V16.7723H15.8546C16.8746 16.7723 17.7091 15.9533 17.7091 14.9523V13.8421C18.2562 13.56 18.6364 13.0049 18.6364 12.3498V10.2568C18.6364 9.61981 18.2562 9.06472 17.7091 8.78263Z" fill="white"/>
  <path d="M6.58182 10.4022C7.09393 10.4022 7.50909 9.99483 7.50909 9.49226C7.50909 8.98969 7.09393 8.58228 6.58182 8.58228C6.0697 8.58228 5.65454 8.98969 5.65454 9.49226C5.65454 9.99483 6.0697 10.4022 6.58182 10.4022Z" fill="white"/>
  <path d="M12.1455 10.4022C12.6576 10.4022 13.0727 9.99483 13.0727 9.49226C13.0727 8.98969 12.6576 8.58228 12.1455 8.58228C11.6333 8.58228 11.2182 8.98969 11.2182 9.49226C11.2182 9.99483 11.6333 10.4022 12.1455 10.4022Z" fill="white"/>
  <path d="M14.9273 7.69953C14.4822 5.10608 12.1825 3.12231 9.41 3.12231C6.60036 3.12231 3.57745 5.40637 3.81854 8.99171C6.1089 8.07263 7.83363 6.07066 8.32509 3.63191C9.53982 6.02516 12.0342 7.67223 14.9273 7.69953Z" fill="white"/>
</svg>