<svg width="13" height="13" viewBox="0 0 13 13" fill="none" xmlns="http://www.w3.org/2000/svg">
  <path d="M6.5 0C2.91015 0 0 2.91015 0 6.5C0 10.0899 2.91015 13 6.5 13C10.0899 13 13 10.0899 13 6.5C13 2.91015 10.0899 0 6.5 0ZM4.16406 2.58191C4.29798 2.57401 4.41904 2.65406 4.5108 2.79614L5.39947 4.48144C5.49304 4.68114 5.43987 4.89497 5.30029 5.03765L4.89325 5.44469C4.86813 5.47912 4.8516 5.51789 4.8512 5.56053C5.0073 6.16476 5.4808 6.72212 5.89858 7.1054C6.31633 7.48868 6.76534 8.00761 7.34821 8.13055C7.42025 8.15064 7.50851 8.15785 7.56006 8.10993L8.03296 7.6283C8.1962 7.50457 8.43234 7.44461 8.60663 7.54578H8.61456L10.2181 8.49238C10.4535 8.63992 10.4779 8.92511 10.3094 9.09858L9.2049 10.1943C9.04179 10.3616 8.8251 10.4178 8.61458 10.4181C7.68348 10.3902 6.8037 9.9332 6.08108 9.46357C4.89493 8.60066 3.80691 7.5304 3.12385 6.23737C2.86187 5.69516 2.55413 5.00334 2.5835 4.39815C2.58612 4.17048 2.64772 3.94743 2.80805 3.80068L3.91254 2.69619C3.99858 2.62298 4.0837 2.58665 4.16406 2.58191Z" fill="white"/>
</svg>