<svg width="24" height="24" viewBox="0 0 24 24" fill="none" xmlns="http://www.w3.org/2000/svg">
  <path fill-rule="evenodd" clip-rule="evenodd" d="M5 0C2.23857 0 0 2.23853 0 5V19C0 21.7615 2.23857 24 5 24H19C21.7614 24 24 21.7615 24 19V5C24 2.23853 21.7614 0 19 0H5ZM10.8714 17.4906C11.5795 16.2328 12.9267 14.2142 14.6332 12.3126C16.3544 10.3945 18.3548 8.69287 20.3544 7.93506L19.6456 6.06494C17.2008 6.99133 14.9419 8.97388 13.1446 10.9768C11.7393 12.543 10.5635 14.1812 9.74568 15.4785L5.64413 12.0245L4.35587 13.5544L9.35587 17.7649L10.2792 18.5425L10.8714 17.4906Z" fill="#F1270F"/>
</svg>