<svg width="20" height="20" viewBox="0 0 20 20" fill="none" xmlns="http://www.w3.org/2000/svg">
  <path d="M19.1513 10.1824C19.1151 12.0784 18.5169 13.9209 17.4323 15.4764C16.3477 17.0319 14.8257 18.2304 13.0592 18.92C11.2926 19.6097 9.36106 19.7593 7.50936 19.35C5.65767 18.9406 3.96919 17.9908 2.65798 16.6209C1.34676 15.2509 0.471827 13.5225 0.144095 11.6548C-0.183636 9.78708 0.0505836 7.86411 0.817068 6.12964C1.58355 4.39518 2.84779 2.92731 4.44952 1.91211C6.05126 0.896911 7.91837 0.380083 9.81419 0.427145C12.3334 0.520447 14.7173 1.59116 16.4603 3.41229C18.2034 5.23341 19.1686 7.66175 19.1513 10.1824Z" fill="#F1270F"/>
  <path d="M12.7883 5.21207H14.5013L10.7588 9.26827L15.1616 14.7878H11.7137L9.01363 11.4402L5.92409 14.7878H4.20999L8.21302 10.4493L3.9899 5.21207H7.52427L9.96493 8.2719L12.7883 5.21207ZM12.187 13.8155H13.1363L7.009 6.13331H5.99038L12.187 13.8155Z" fill="white"/>
</svg>