<svg width="73" height="40" viewBox="0 0 73 40" fill="none" xmlns="http://www.w3.org/2000/svg">
  <g clip-path="url(#clip0_1_753)">
    <path d="M62.0785 26.9574C61.2937 27.995 60.3462 28.9969 59.2423 29.9526C55.5053 33.1892 50.2405 35.6723 44.0175 37.1331L38.3354 38.4669L32.7588 37.1493C26.5539 35.6831 21.3063 33.1996 17.5827 29.9676C16.4764 29.0073 15.5276 28 14.7429 26.9574H12.7982C13.7491 28.3855 14.972 29.7541 16.4539 31.0405C20.3779 34.4469 25.8739 37.0559 32.3472 38.5857L38.3342 40L44.4262 38.5699C50.918 37.0459 56.4316 34.4378 60.3699 31.0272C61.851 29.7445 63.0735 28.3805 64.026 26.9574H62.0785ZM65.6662 6.31942C52.9158 6.31942 38.4229 0 38.4229 0C38.4229 0 24.1232 6.27622 11.1715 6.29907L10.3561 6.30073V14.2459L11.9902 14.1811V7.7757C17.6817 7.67684 23.7611 6.65504 30.0749 4.73479C34.2534 3.46417 37.254 2.1757 38.3399 1.68598L38.3824 1.67269C40.7755 2.75099 52.2076 7.59502 64.8557 7.79689V11.7965L66.4898 12.01V6.31942H65.6662Z" fill="#F1270F"/>
    <path d="M32.1214 13.1726C32.1214 13.1726 35.2775 11.2955 37.8277 11.1497C40.3778 11.0039 46.2915 10.6318 46.2915 10.6318L45.5104 13.1726H32.1214Z" fill="url(#paint0_linear_1_753)"/>
    <path d="M47.7689 10.6322L47.1785 13.1256H53.7194L55.1219 12.4266C55.1219 12.4266 54.2222 11.5846 52.2097 11.2353C50.1971 10.886 47.7689 10.6318 47.7689 10.6318V10.6322Z" fill="url(#paint1_linear_1_753)"/>
    <path d="M10.1045 23.059C10.2972 23.059 10.4396 23.118 10.532 23.2356C10.6245 23.3531 10.649 23.5101 10.6057 23.7053L10.3933 24.735C10.35 24.9307 10.2579 25.0873 10.1163 25.2048C9.97478 25.3224 9.8099 25.3814 9.62088 25.3814H7.33298C7.14027 25.3814 6.99871 25.3224 6.90829 25.2048C6.81787 25.0873 6.79251 24.9303 6.83178 24.735L6.94389 24.1784H8.30018L8.15862 24.8667H9.00758L9.27884 23.5737H7.71061C7.51791 23.5737 7.37553 23.5147 7.28306 23.3971C7.1906 23.2796 7.16605 23.123 7.20942 22.9274L7.42176 21.8977C7.46513 21.702 7.55718 21.5454 7.69875 21.4279C7.84031 21.3103 8.00519 21.2513 8.19421 21.2513H10.4821C10.6748 21.2513 10.8172 21.3095 10.9097 21.4258C11.0021 21.5421 11.0267 21.6974 10.9833 21.8918L10.8712 22.4484H9.51491L9.65647 21.766H8.80751L8.53625 23.059H10.1045Z" fill="#F1270F"/>
    <path d="M12.115 25.3811H10.7587L11.6195 21.2507H12.9758L12.115 25.3811Z" fill="#F1270F"/>
    <path d="M15.5055 25.3811H12.6223L13.4831 21.2507H14.8394L14.0846 24.8665H15.6119L15.5059 25.3811H15.5055Z" fill="#F1270F"/>
    <path d="M17.2861 25.3811H15.9298L16.7906 21.2507H18.1469L17.2861 25.3811Z" fill="#F1270F"/>
    <path d="M18.4296 25.3811C18.2369 25.3811 18.0945 25.3221 18.0021 25.2046C17.9096 25.087 17.885 24.93 17.9284 24.7348L18.518 21.8974C18.5614 21.7018 18.6534 21.5452 18.795 21.4276C18.9365 21.3101 19.1014 21.2511 19.2904 21.2511H21.5783C21.771 21.2511 21.9134 21.3093 22.0059 21.4256C22.0983 21.5419 22.1229 21.6972 22.0795 21.8916L21.9674 22.4482H20.6111L20.7527 21.7657H19.9037L19.2552 24.8665H20.1042L20.2871 24.0046H19.774L19.88 23.4899H21.7489L21.4896 24.7352C21.4462 24.9308 21.3541 25.0874 21.2126 25.205C21.071 25.3225 20.9061 25.3815 20.7171 25.3815H18.4292L18.4296 25.3811Z" fill="#F1270F"/>
    <path d="M25.5584 24.7348C25.5151 24.9304 25.423 25.087 25.2814 25.2046C25.1399 25.3221 24.975 25.3811 24.786 25.3811H22.4981C22.3054 25.3811 22.163 25.3221 22.0705 25.2046C21.9781 25.087 21.9535 24.93 21.9969 24.7348L22.7223 21.2507H24.0786L23.3237 24.8665H24.1727L24.9275 21.2507H26.2838L25.5584 24.7348Z" fill="#F1270F"/>
    <path d="M29.4911 25.3811H28.1348L27.94 24.0881H27.5567L27.2854 25.3811H25.9291L26.7899 21.2507H29.7145C29.9072 21.2507 30.0487 21.3097 30.1391 21.4272C30.2296 21.5448 30.2533 21.7018 30.2099 21.897L29.8916 23.4413C29.8564 23.6087 29.7844 23.7475 29.6764 23.8575C29.5684 23.9672 29.4395 24.0382 29.2902 24.0702L29.4907 25.3811H29.4911ZM28.0407 21.7653L27.6634 23.573H28.5067L28.8839 21.7653H28.0407Z" fill="#F1270F"/>
    <path d="M31.3485 25.3811H29.9923L30.8531 21.2507H32.2094L31.3485 25.3811Z" fill="#F1270F"/>
    <path d="M33.6303 25.3811C33.4376 25.3811 33.2952 25.3221 33.2028 25.2046C33.1103 25.087 33.0857 24.93 33.1291 24.7348L33.7187 21.8974C33.7621 21.7018 33.8541 21.5452 33.9957 21.4276C34.1372 21.3101 34.3021 21.2511 34.4911 21.2511H36.7377L36.6317 21.7657H35.1044L34.4204 24.8665H35.9829L35.8769 25.3811H33.6303Z" fill="#F1270F"/>
    <path d="M39.8566 25.3811H38.5003L38.7715 24.0881H37.9226L37.6513 25.3811H36.295L37.0204 21.897C37.0638 21.7013 37.1563 21.5448 37.2974 21.4272C37.439 21.3097 37.6039 21.2507 37.7929 21.2507H40.0808C40.2735 21.2507 40.4159 21.3097 40.5083 21.4272C40.6008 21.5448 40.6253 21.7018 40.582 21.897L39.8566 25.3811ZM38.4062 21.7653L38.0289 23.573H38.8779L39.2551 21.7653H38.4062Z" fill="#F1270F"/>
    <path d="M43.925 25.3811H42.5687L42.374 24.0881H41.9906L41.7194 25.3811H40.3631L41.2239 21.2507H44.1484C44.3411 21.2507 44.4827 21.3097 44.5731 21.4272C44.6635 21.5448 44.6873 21.7018 44.6439 21.897L44.3256 23.4413C44.2904 23.6087 44.2184 23.7475 44.1104 23.8575C44.0024 23.9676 43.8735 24.0382 43.7241 24.0702L43.9246 25.3811H43.925ZM42.4746 21.7653L42.0974 23.573H42.9407L43.3179 21.7653H42.4746Z" fill="#F1270F"/>
    <path d="M49.1313 25.3811H47.775L47.5803 24.0881H47.1969L46.9256 25.3811H45.5694L46.4302 21.2507H49.3547C49.5474 21.2507 49.689 21.3097 49.7794 21.4272C49.8698 21.5448 49.8935 21.7018 49.8502 21.897L49.5319 23.4413C49.4967 23.6087 49.4247 23.7475 49.3167 23.8575C49.2086 23.9676 49.0798 24.0382 48.9304 24.0702L49.1309 25.3811H49.1313ZM47.6809 21.7653L47.3037 23.573H48.1469L48.5242 21.7653H47.6809Z" fill="#F1270F"/>
    <path d="M50.2753 25.3811C50.0826 25.3811 49.9402 25.3221 49.8477 25.2046C49.7552 25.087 49.7307 24.93 49.7741 24.7348L50.3636 21.8974C50.407 21.7018 50.4995 21.5452 50.6406 21.4276C50.7822 21.3101 50.9471 21.2511 51.1361 21.2511H53.3827L53.2767 21.7657H51.7494L51.4781 23.0588H52.6634L52.5574 23.5734H51.3722L51.1009 24.8665H52.6282L52.5222 25.3811H50.2757H50.2753Z" fill="#F1270F"/>
    <path d="M56.5846 25.3811H55.2283L54.8392 22.7892L54.2967 25.3811H52.9404L53.8012 21.2507H55.1575L55.5466 23.8488L56.0891 21.2507H57.4454L56.5846 25.3811Z" fill="#F1270F"/>
    <path d="M61.1481 21.7657H60.1339L59.379 25.3815H58.0227L58.7776 21.7657H57.7633L57.8693 21.2511H61.2537L61.1477 21.7657H61.1481Z" fill="#F1270F"/>
    <path d="M64.3795 25.3811H63.0232L63.2944 24.0881H62.4455L62.1742 25.3811H60.8179L61.5433 21.897C61.5867 21.7013 61.6792 21.5448 61.8203 21.4272C61.9619 21.3097 62.1267 21.2507 62.3158 21.2507H64.6037C64.7964 21.2507 64.9388 21.3097 65.0312 21.4272C65.1237 21.5448 65.1482 21.7018 65.1049 21.897L64.3795 25.3811ZM62.9291 21.7653L62.5518 23.573H63.4008L63.778 21.7653H62.9291Z" fill="#F1270F"/>
    <path d="M67.7696 25.3811H64.8864L65.7472 21.2507H67.1035L66.3486 24.8665H67.876L67.77 25.3811H67.7696Z" fill="#F1270F"/>
    <path d="M36.5442 35.1713V35.1589" stroke="#549FDB" stroke-miterlimit="10"/>
    <path d="M30.0115 28.0274L30.2566 28.5321L30.8052 28.6131L30.4083 29.006L30.502 29.5605L30.0115 29.2988L29.5205 29.5605L29.6142 29.006L29.2173 28.6131L29.766 28.5321L30.0115 28.0274Z" fill="#F2170F"/>
    <path d="M33.051 27.6777L33.4086 28.4125L34.2072 28.5304L33.6291 29.1028L33.7657 29.9103L33.051 29.529L32.3366 29.9103L32.4729 29.1028L31.8947 28.5304L32.6938 28.4125L33.051 27.6777Z" fill="#F2170F"/>
    <path d="M36.5 27.3915L36.9488 28.3148L37.9528 28.4627L37.2262 29.1817L37.3981 30.1969L36.5 29.7175L35.6019 30.1969L35.7738 29.1817L35.0471 28.4627L36.0512 28.3148L36.5 27.3915Z" fill="#F2170F"/>
    <path d="M39.949 27.6777L40.3062 28.4125L41.1053 28.5304L40.5271 29.1028L40.6634 29.9103L39.949 29.529L39.2343 29.9103L39.3709 29.1028L38.7928 28.5304L39.5914 28.4125L39.949 27.6777Z" fill="#F2170F"/>
    <path d="M42.9885 28.0274L43.234 28.5321L43.7826 28.6131L43.3858 29.006L43.4795 29.5605L42.9885 29.2988L42.498 29.5605L42.5916 29.006L42.1948 28.6131L42.7434 28.5321L42.9885 28.0274Z" fill="#F2170F"/>
    <path d="M18.8252 28.7942L27.9081 29.1057V28.4827L18.8252 28.7942Z" fill="#F2170F"/>
    <path d="M54.1748 28.7942L45.0919 29.1057V28.4827L54.1748 28.7942Z" fill="#F2170F"/>
    <path d="M34.0002 14.702C34.0002 14.702 31.3224 14.1923 31.1607 14.2226C30.9995 14.253 31.0953 14.5562 31.0953 14.5562C30.7901 14.5927 30.635 13.9676 30.9995 13.7371C31.3641 13.5066 33.3545 13.561 33.6176 13.7674C33.8807 13.9738 34.0002 14.702 34.0002 14.702Z" fill="#2C6FCC"/>
    <path d="M73 14.9691C72.5045 15.0991 72.2505 15.8584 72.2505 15.8584L71.4048 15.6486L70.5767 18.2372H68.8636C68.2515 18.2372 67.7553 18.741 67.7553 19.3624L66.4898 18.3198L66.3896 18.2372C65.917 17.8833 65.4027 17.583 64.8557 17.3454C63.9261 16.9408 62.9013 16.7165 61.826 16.7165C60.1236 16.7165 58.5472 17.2777 57.2736 18.2293L55.7769 19.3624C55.7769 19.3624 55.7806 19.3545 55.7872 19.34C56.0576 18.7423 55.6571 18.0511 55.0123 17.9892C53.8699 17.88 52.6986 17.7861 51.508 17.7055C51.6037 16.9462 51.7015 15.4501 51.1966 14.3797C53.9268 13.5996 55.894 12.447 55.894 12.447C55.894 12.447 55.8927 12.442 55.8886 12.4324C55.824 12.2762 55.0802 10.8901 48.8834 10.3876C48.4362 10.351 47.9354 10.3344 47.39 10.3327L46.8193 12.7938L46.1638 12.8195L46.8455 10.336C44.6378 10.366 41.8004 10.5977 38.7834 10.7801C36.6641 10.908 34.5942 11.4837 32.7032 12.4627L30.8347 13.4305L27.3009 15.2602C27.3009 15.2602 27.6078 15.2565 28.1458 15.2499C28.1458 15.2499 26.657 15.6727 25.2352 17.5311C25.2352 17.5311 24.8302 17.9705 24.7107 18.3265C24.7107 18.3265 24.7222 18.1952 24.7516 18.022C24.7925 17.7774 24.6023 17.5552 24.3584 17.5647C19.4651 17.7574 15.5796 18.0033 13.6353 18.1379C13.0945 18.1753 12.6951 18.6654 12.7606 19.2121L12.7639 19.2411L11.9902 18.5699L11.7271 18.3419C11.3033 18.0096 10.8438 17.7213 10.3561 17.4837C9.34798 16.9919 8.21794 16.7165 7.02571 16.7165C4.89574 16.7165 2.96911 17.5954 1.576 19.0143H0C0.92056 18.1059 2.39468 17.0567 4.68258 16.3282C6.05401 15.8912 8.10952 15.6017 10.3561 15.4106C10.8921 15.3649 11.4391 15.325 11.9902 15.2897C17.3442 14.95 23.0926 15.0796 23.0926 15.0796L26.2372 13.6133L30.7635 11.5032C32.6971 10.6019 34.762 10.0283 36.8789 9.81144C40.7047 9.41933 46.6532 9.04301 50.1582 9.4347C54.176 9.88371 58.6961 11.0251 61.9287 12.1919C62.8898 12.5383 63.7367 12.8877 64.4232 13.2212C64.5619 13.2885 64.7064 13.3537 64.8557 13.4164C65.3573 13.6266 65.9121 13.8098 66.4898 13.9689C69.4483 14.7834 73 14.9691 73 14.9691Z" fill="#2C6FCC"/>
    <path d="M51.1353 17.6806C51.1353 17.6806 51.0068 18.3672 50.7797 18.5977L50.7818 18.5906C50.9082 18.118 50.5752 17.6449 50.0936 17.6166C41.8552 17.1356 32.8337 17.2573 25.6685 17.5153C26.1811 16.8959 27.2715 15.7238 28.5251 15.2453C29.0091 15.2395 29.6175 15.232 30.32 15.2241C30.6592 15.5381 31.8015 16.4282 33.8758 16.4415C33.8758 16.4415 33.1974 15.8737 33.0072 15.1933C33.0072 15.1933 32.8636 14.9366 32.9356 14.702C32.9356 14.702 33.0571 14.6534 33.087 14.7443C33.1054 14.8004 33.2007 15.0073 33.3488 15.1896C37.3956 15.1447 42.5156 15.0932 45.5432 15.0824L46.1638 12.8195L46.8193 12.7938L46.289 15.0804H46.5717C48.0819 15.0804 49.5593 14.8228 50.8763 14.4689C51.0559 15.0592 51.3996 16.4419 51.1353 17.6806Z" fill="#2C6FCC"/>
    <path d="M11.7868 19.2723C11.7566 19.2532 11.237 18.9267 10.3561 18.6164C8.71504 18.0382 5.81998 17.5169 2.50065 19.1485C2.50065 19.1485 6.00246 15.8982 10.3561 18.2928C10.8241 18.5504 11.3024 18.8731 11.7868 19.2723Z" fill="#2C6FCC"/>
    <path d="M66.5704 19.2723C66.5638 19.2682 66.5368 19.2511 66.4898 19.2237C66.286 19.1049 65.7108 18.793 64.8557 18.5209C63.1766 17.9872 60.4198 17.6075 57.2842 19.1485C57.2842 19.1485 60.6346 16.0387 64.8557 18.1438C65.3884 18.4096 65.9346 18.7581 66.4898 19.2063C66.5164 19.2279 66.5434 19.2499 66.5704 19.2723Z" fill="#2C6FCC"/>
    <path d="M20.5391 19.8546H52.4605C52.4605 19.8546 39.2367 18.3178 20.5391 19.8546Z" fill="#F2170F"/>
  </g>
  <defs>
    <linearGradient id="paint0_linear_1_753" x1="39.2064" y1="10.1832" x2="39.2064" y2="13.0966" gradientUnits="userSpaceOnUse">
      <stop stop-color="#2C6FCC"/>
      <stop offset="0.15" stop-color="#2C6FCC" stop-opacity="0.88"/>
      <stop offset="0.46" stop-color="#2C6FCC" stop-opacity="0.58"/>
      <stop offset="0.91" stop-color="#2C6FCC" stop-opacity="0.1"/>
      <stop offset="1" stop-color="#2C6FCC" stop-opacity="0"/>
    </linearGradient>
    <linearGradient id="paint1_linear_1_753" x1="51.1504" y1="10.1915" x2="51.1504" y2="13.0509" gradientUnits="userSpaceOnUse">
      <stop stop-color="#2C6FCC"/>
      <stop offset="0.15" stop-color="#2C6FCC" stop-opacity="0.88"/>
      <stop offset="0.46" stop-color="#2C6FCC" stop-opacity="0.58"/>
      <stop offset="0.91" stop-color="#2C6FCC" stop-opacity="0.1"/>
      <stop offset="1" stop-color="#2C6FCC" stop-opacity="0"/>
    </linearGradient>
    <clipPath id="clip0_1_753">
      <rect width="73" height="40" fill="white"/>
    </clipPath>
  </defs>
</svg>